<svg xmlns="http://www.w3.org/2000/svg" fill="none" viewBox="0 0 81 80"><g clip-path="url(#a)"><path fill="#fff" d="M80.5 0H.5v80h80V0Z"/><path fill="#002147" d="M79.806.63H1.19v78.742h78.617V.631Z"/><path fill="#fff" d="M11.871 56.392c-.26.26-.671.466-1.287.466-.502 0-.982-.155-1.309-.48-.424-.425-.41-.964-.41-1.43v-2.906H9.5v2.975c0 .36-.014.716.269.997.191.191.488.297.835.297.346 0 .607-.12.779-.292.319-.32.291-.68.291-1.48v-2.5h.621v2.4c0 .878.028 1.494-.424 1.947v.006ZM16.841 56.767l-2.227-3.761.014 3.76h-.58v-4.724h.63l2.227 3.775-.014-3.775h.58v4.725h-.63ZM19.373 56.767v-4.725h.636v4.725h-.636ZM23.547 56.767h-.699l-1.628-4.725h.658l1.336 4.072 1.373-4.072h.616l-1.656 4.725ZM26.44 56.767v-4.725h2.61v.525H27.06v1.486h1.867v.511H27.06v1.664h2.044v.539H26.44ZM33.14 56.767l-.543-1.234c-.325-.73-.48-.794-1.118-.794h-.296v2.025h-.622v-4.725h1.046c.63 0 1.118-.008 1.5.375.233.233.37.544.37.941 0 .326-.092.603-.292.814-.17.184-.447.34-.757.375.155.009.31.1.402.192.141.142.241.37.369.658l.607 1.367h-.665v.006Zm-.501-3.973c-.256-.255-.588-.247-.968-.247h-.488v1.692h.219c.452 0 .912.014 1.209-.283.15-.15.233-.37.233-.595 0-.255-.1-.461-.205-.567ZM36.236 56.864c-.835 0-1.393-.453-1.45-.511l.304-.44c.086.056.544.404 1.118.404.574 0 .918-.348.918-.778 0-.517-.577-.772-1.087-1.02-.602-.291-1.12-.602-1.12-1.297 0-.75.607-1.275 1.478-1.275.87 0 1.3.434 1.342.48l-.32.412a1.569 1.569 0 0 0-.98-.353c-.517 0-.886.256-.886.68 0 .448.416.612.885.854.416.21 1.343.536 1.343 1.463 0 .778-.575 1.38-1.548 1.38h.003ZM39.275 56.767v-4.725h.636v4.725h-.636ZM43.161 52.567v4.2h-.635v-4.2H41.14v-.525h3.4v.525H43.16ZM47.285 54.897v1.87h-.63v-1.87l-1.492-2.855h.697l1.15 2.222 1.13-2.222h.64l-1.492 2.855h-.003ZM54.058 56.858c-1.246 0-2.144-1.014-2.144-2.444s.89-2.464 2.177-2.464 2.136 1.005 2.136 2.43c0 1.425-.885 2.478-2.172 2.478h.003Zm-.009-4.37c-.898 0-1.486.76-1.486 1.912 0 1.153.657 1.911 1.52 1.911.981 0 1.492-.842 1.492-1.956 0-1.113-.63-1.869-1.528-1.869l.002.003ZM58.365 52.567v1.486h1.811v.511h-1.811v2.203h-.63v-4.725h2.555v.525h-1.925ZM18.425 66.053c0 3.025-2.327 5.216-5.237 5.216-2.909 0-5.236-2.219-5.236-5.105a5.214 5.214 0 0 1 5.236-5.217c2.907 0 5.237 2.217 5.237 5.106Zm-1.687.055c0-2.747-1.303-4.602-3.55-4.602-2.437 0-3.544 2.247-3.544 4.602 0 2.748 1.303 4.614 3.544 4.614 2.441 0 3.55-2.252 3.55-4.614ZM50.402 66.053c0 3.025-2.327 5.216-5.236 5.216-2.91 0-5.237-2.219-5.237-5.105a5.212 5.212 0 0 1 5.237-5.217c2.909 0 5.236 2.217 5.236 5.106Zm-1.69.055c0-2.747-1.303-4.602-3.546-4.602-2.438 0-3.547 2.247-3.547 4.602 0 2.748 1.303 4.614 3.547 4.614 2.438 0 3.547-2.252 3.547-4.614ZM54.45 66.136h1.244c1.884 0 2.275-1.158 2.275-2.3 0-.853-.36-1.55-1.246-1.941-.474-.195-.915-.223-1.525-.223h-.749v4.464Zm2.273 1.645c-.582-.837-.804-1.087-1.525-1.087h-.749v3.334c0 .278.083.416.416.472l1.137.222v.392h-4.487v-.392l1.023-.222c.333-.086.414-.194.414-.472v-7.825c0-.278-.109-.42-.414-.475l-1.023-.222v-.39h4.376c.916 0 1.553.084 2.08.279 1.08.416 1.69 1.447 1.69 2.413 0 1.225-.913 2.245-2.438 2.609v.055c.305.14.471.336 1.553 1.753l1.386 1.803c.195.278.416.472.774.53l.943.167v.392h-2.41c-.277 0-.419-.086-.666-.42l-2.077-2.914-.003-.002ZM37.187 64.558h.472v3.306h-.472l-.194-.95c-.08-.361-.302-.5-.635-.5h-2.41v3.614c0 .278.083.416.413.472l1.14.222v.392h-4.49v-.392l1.023-.222c.333-.086.419-.194.419-.472v-7.825c0-.278-.111-.42-.419-.475l-1.023-.222v-.39h7.566v2.498h-.469l-.388-1.408c-.111-.392-.333-.531-.666-.531h-3.1v4.183h2.41c.332 0 .554-.13.635-.489l.194-.808-.006-.003ZM62.678 71.114v-.392l1.024-.222c.332-.086.416-.194.416-.472v-7.825c0-.278-.111-.42-.416-.475l-1.024-.222v-.39h4.684c1.273 0 2.189.165 2.935.5 1.886.865 2.743 2.72 2.743 4.548 0 1.828-.663 3.444-2.355 4.336-.777.417-1.855.614-3.27.614h-4.74.003Zm2.91-9.442v8.436c0 .364.083.448.443.448h1.218c1.162 0 2.022-.142 2.632-.587 1.026-.752 1.47-2.052 1.47-3.777s-.444-3.295-1.828-4.103c-.585-.333-1.331-.417-2.493-.417H65.587ZM22.363 70.722v.392h-3.575v-.392l.888-.194c.332-.086.582-.195.779-.45l2.995-3.83-2.995-4.048c-.197-.278-.447-.42-.752-.503l-.829-.194v-.389h4.407v.389l-.943.17c-.302.055-.274.136-.108.36l2.213 3.14h.056l2.299-3.084c.166-.222.166-.333-.083-.389l-.885-.194v-.39h3.572v.39l-.885.194c-.332.083-.585.195-.776.445l-2.851 3.58 3.184 4.3c.194.278.443.417.751.5l.83.195v.391h-4.408v-.391l.946-.167c.3-.056.272-.142.111-.364l-2.413-3.386h-.055l-2.466 3.386c-.166.222-.194.278.111.336l.888.195-.006.002ZM52.78 20.025c0 .256-.124.395-.25.395-.069 0-.102-.025-.102-.153v-.556c0-.036.003-.07.008-.072a.145.145 0 0 1 .064-.011c.122 0 .28.086.28.397Z"/><path fill="#fff" d="M53.642 19.608c-.11 0-.202.128-.202.381s.097.453.238.453c.125 0 .192-.12.192-.38 0-.292-.103-.454-.228-.454Zm0 0c-.11 0-.202.128-.202.381s.097.453.238.453c.125 0 .192-.12.192-.38 0-.292-.103-.454-.228-.454Zm0 0c-.11 0-.202.128-.202.381s.097.453.238.453c.125 0 .192-.12.192-.38 0-.292-.103-.454-.228-.454Zm0 0c-.11 0-.202.128-.202.381s.097.453.238.453c.125 0 .192-.12.192-.38 0-.292-.103-.454-.228-.454Zm0 0c-.11 0-.202.128-.202.381s.097.453.238.453c.125 0 .192-.12.192-.38 0-.292-.103-.454-.228-.454Zm0 0c-.11 0-.202.128-.202.381s.097.453.238.453c.125 0 .192-.12.192-.38 0-.292-.103-.454-.228-.454Zm0 0c-.11 0-.202.128-.202.381s.097.453.238.453c.125 0 .192-.12.192-.38 0-.292-.103-.454-.228-.454Zm0 0c-.11 0-.202.128-.202.381s.097.453.238.453c.125 0 .192-.12.192-.38 0-.292-.103-.454-.228-.454Zm0 0c-.11 0-.202.128-.202.381s.097.453.238.453c.125 0 .192-.12.192-.38 0-.292-.103-.454-.228-.454Zm0 0c-.11 0-.202.128-.202.381s.097.453.238.453c.125 0 .192-.12.192-.38 0-.292-.103-.454-.228-.454Zm0 0c-.11 0-.202.128-.202.381s.097.453.238.453c.125 0 .192-.12.192-.38 0-.292-.103-.454-.228-.454Zm0 0c-.11 0-.202.128-.202.381s.097.453.238.453c.125 0 .192-.12.192-.38 0-.292-.103-.454-.228-.454Zm0 0c-.11 0-.202.128-.202.381s.097.453.238.453c.125 0 .192-.12.192-.38 0-.292-.103-.454-.228-.454Zm0 0c-.11 0-.202.128-.202.381s.097.453.238.453c.125 0 .192-.12.192-.38 0-.292-.103-.454-.228-.454Zm0 0c-.11 0-.202.128-.202.381s.097.453.238.453c.125 0 .192-.12.192-.38 0-.292-.103-.454-.228-.454Zm0 0c-.11 0-.202.128-.202.381s.097.453.238.453c.125 0 .192-.12.192-.38 0-.292-.103-.454-.228-.454Zm0 0c-.11 0-.202.128-.202.381s.097.453.238.453c.125 0 .192-.12.192-.38 0-.292-.103-.454-.228-.454Zm0 0c-.11 0-.202.128-.202.381s.097.453.238.453c.125 0 .192-.12.192-.38 0-.292-.103-.454-.228-.454Zm0 0c-.11 0-.202.128-.202.381s.097.453.238.453c.125 0 .192-.12.192-.38 0-.292-.103-.454-.228-.454Zm0 0c-.11 0-.202.128-.202.381s.097.453.238.453c.125 0 .192-.12.192-.38 0-.292-.103-.454-.228-.454Zm2.96.45c0-.583-.197-1.052-.622-1.302-.269-.159-.63-.209-1.076-.209h-3.228v6.559h3.517c.812 0 1.292.183 1.334.914h.077v-5.962h-.003Zm-2.383.381c.07-.006.097-.02.105-.075.006-.044.014-.12.023-.253l.016-.291c.009-.181-.002-.198-.116-.209v-.055h.34l.253.572.22-.572h.352v.055c-.111.011-.117.017-.111.17l.014.483c.002.161.005.164.11.175v.056h-.452v-.056c.109-.011.114-.014.111-.175v-.508h-.01l-.278.725h-.078l-.263-.675h-.003l-.011.322c-.006.122-.003.192.003.236.005.056.036.067.13.075v.056h-.355v-.056Zm.818 1.422-.022-.01c-.12-.056-.252-.131-.252-.284 0-.164.116-.297.343-.297.045 0 .092.005.134.016l.075.02c.005.058.016.127.033.227l-.064.009c-.033-.095-.083-.197-.197-.197a.121.121 0 0 0-.125.125c0 .069.056.114.147.155l.034.017c.133.06.246.133.246.303 0 .177-.144.308-.366.308a.567.567 0 0 1-.25-.061c-.01-.064-.027-.142-.046-.24l.063-.019c.03.084.117.245.258.245.075 0 .133-.05.133-.145 0-.083-.058-.133-.144-.172Zm-.951-.439c.025.08.141.367.194.509.044-.125.136-.4.16-.467.031-.089.02-.105-.043-.111l-.045-.006v-.055h.35v.055c-.08.011-.103.017-.158.15a30.2 30.2 0 0 0-.294.745h-.111c-.1-.261-.233-.62-.286-.756-.047-.122-.078-.13-.147-.139v-.055h.466v.055l-.047.006c-.056.005-.056.02-.04.07Zm-.419-1.889c.266 0 .469.195.469.481 0 .311-.211.503-.488.503a.461.461 0 0 1-.48-.478c0-.236.155-.506.5-.506Zm-1.603.962v-.056c.105-.008.117-.02.117-.175v-.478c0-.155-.011-.166-.106-.175v-.055h.422c.177 0 .324.036.421.127a.427.427 0 0 1 .125.298c0 .36-.274.514-.607.514h-.372Zm.96 2.588c-.1.009-.111.017-.111.176v.474c0 .156.01.167.11.175v.059h-.468v-.058c.1-.009.11-.02.11-.175v-.476c0-.158-.01-.166-.11-.174v-.059h.469v.059Zm.022-.852h-.358v-.056c.064-.003.1-.025.108-.075.006-.044.011-.125.011-.275v-.267c0-.108-.002-.125-.033-.166-.02-.03-.055-.04-.108-.045v-.055h.319l.48.6h.002v-.195c0-.152-.005-.23-.01-.275-.006-.052-.048-.07-.142-.075v-.055h.369v.055c-.072.003-.111.023-.117.075a2.316 2.316 0 0 0-.01.275v.545h-.126l-.535-.684h-.003v.267c0 .15.006.23.011.275.009.05.048.07.142.075v.056Zm.788 1.736h-.716v-.058c.11-.009.122-.02.122-.175v-.476c0-.158-.011-.166-.108-.174v-.059h.469v.059c-.106.008-.117.016-.117.175v.494c0 .075.003.111.03.125a.246.246 0 0 0 .1.011c.048 0 .109-.003.14-.042a.344.344 0 0 0 .068-.141l.064.01a3.017 3.017 0 0 1-.053.25Zm.807 0h-.719v-.058c.111-.009.122-.02.122-.175v-.476c0-.158-.01-.166-.108-.174v-.059h.469v.059c-.103.008-.114.016-.114.175v.494c0 .075.003.111.028.125a.246.246 0 0 0 .1.011c.047 0 .11-.003.138-.042a.31.31 0 0 0 .072-.141l.062.01a4.933 4.933 0 0 1-.05.25Zm.901-.883c-.08.008-.103.016-.158.147-.008.022-.183.45-.291.744h-.114c-.1-.258-.233-.617-.286-.753-.047-.125-.077-.13-.147-.139v-.058h.466v.059l-.047.005c-.055.006-.055.017-.039.07.028.08.142.363.194.505.045-.122.136-.397.161-.467.03-.088.02-.102-.044-.11h-.042v-.062h.347v.059Zm.45-3.473c-.1.009-.112.02-.112.175v.478c0 .156.011.167.111.175v.056h-.468v-.056c.1-.008.11-.02.11-.175v-.478c0-.155-.01-.166-.11-.175v-.055h.468v.055Zm-2.317.83c.125 0 .192-.119.192-.38 0-.291-.103-.453-.228-.453-.11 0-.202.128-.202.381s.097.453.238.453Zm-.036-.832c-.11 0-.202.127-.202.38s.097.453.238.453c.125 0 .192-.12.192-.38 0-.292-.103-.454-.228-.454Zm0 0c-.11 0-.202.127-.202.38s.097.453.238.453c.125 0 .192-.12.192-.38 0-.292-.103-.454-.228-.454Zm0 0c-.11 0-.202.127-.202.38s.097.453.238.453c.125 0 .192-.12.192-.38 0-.292-.103-.454-.228-.454Zm0 0c-.11 0-.202.127-.202.38s.097.453.238.453c.125 0 .192-.12.192-.38 0-.292-.103-.454-.228-.454Zm0 0c-.11 0-.202.127-.202.38s.097.453.238.453c.125 0 .192-.12.192-.38 0-.292-.103-.454-.228-.454Zm0 0c-.11 0-.202.127-.202.38s.097.453.238.453c.125 0 .192-.12.192-.38 0-.292-.103-.454-.228-.454Zm0 0c-.11 0-.202.127-.202.38s.097.453.238.453c.125 0 .192-.12.192-.38 0-.292-.103-.454-.228-.454Zm0 0c-.11 0-.202.127-.202.38s.097.453.238.453c.125 0 .192-.12.192-.38 0-.292-.103-.454-.228-.454Zm0 0c-.11 0-.202.127-.202.38s.097.453.238.453c.125 0 .192-.12.192-.38 0-.292-.103-.454-.228-.454Zm0 0c-.11 0-.202.127-.202.38s.097.453.238.453c.125 0 .192-.12.192-.38 0-.292-.103-.454-.228-.454Zm0 0c-.11 0-.202.127-.202.38s.097.453.238.453c.125 0 .192-.12.192-.38 0-.292-.103-.454-.228-.454Zm0 0c-.11 0-.202.127-.202.38s.097.453.238.453c.125 0 .192-.12.192-.38 0-.292-.103-.454-.228-.454Zm0 0c-.11 0-.202.127-.202.38s.097.453.238.453c.125 0 .192-.12.192-.38 0-.292-.103-.454-.228-.454Zm0 0c-.11 0-.202.127-.202.38s.097.453.238.453c.125 0 .192-.12.192-.38 0-.292-.103-.454-.228-.454Zm0 0c-.11 0-.202.127-.202.38s.097.453.238.453c.125 0 .192-.12.192-.38 0-.292-.103-.454-.228-.454Zm0 0c-.11 0-.202.127-.202.38s.097.453.238.453c.125 0 .192-.12.192-.38 0-.292-.103-.454-.228-.454Zm0 0c-.11 0-.202.127-.202.38s.097.453.238.453c.125 0 .192-.12.192-.38 0-.292-.103-.454-.228-.454Zm0 0c-.11 0-.202.127-.202.38s.097.453.238.453c.125 0 .192-.12.192-.38 0-.292-.103-.454-.228-.454ZM60.418 21.375c-.111 0-.203.128-.203.38 0 .253.097.453.239.453.124 0 .191-.12.191-.38 0-.292-.103-.453-.227-.453Zm.61-1.494h-.006l-.089.274h.186l-.091-.274Zm0 0h-.006l-.089.274h.186l-.091-.274Zm-.61 1.494c-.111 0-.203.128-.203.38 0 .253.097.453.239.453.124 0 .191-.12.191-.38 0-.292-.103-.453-.227-.453Zm0 0c-.111 0-.203.128-.203.38 0 .253.097.453.239.453.124 0 .191-.12.191-.38 0-.292-.103-.453-.227-.453Zm.61-1.494h-.006l-.089.274h.186l-.091-.274Zm0 0h-.006l-.089.274h.186l-.091-.274Zm-.61 1.494c-.111 0-.203.128-.203.38 0 .253.097.453.239.453.124 0 .191-.12.191-.38 0-.292-.103-.453-.227-.453Zm0 0c-.111 0-.203.128-.203.38 0 .253.097.453.239.453.124 0 .191-.12.191-.38 0-.292-.103-.453-.227-.453Zm.61-1.494h-.006l-.089.274h.186l-.091-.274Zm0 0h-.006l-.089.274h.186l-.091-.274Zm-.61 1.494c-.111 0-.203.128-.203.38 0 .253.097.453.239.453.124 0 .191-.12.191-.38 0-.292-.103-.453-.227-.453Zm-1.554-2.828c-.446 0-.81.05-1.076.209-.427.25-.624.719-.624 1.302v5.961h.078c.042-.73.521-.913 1.334-.913h3.539v-6.559h-3.25Zm.76 1.039h.32l.48.6h.002v-.192c0-.152-.006-.233-.011-.277-.008-.05-.047-.07-.142-.073v-.058h.37v.058c-.073.003-.112.023-.117.073a2.173 2.173 0 0 0-.014.277v.542h-.122l-.535-.68h-.003v.263c0 .153.005.234.01.278.01.05.048.07.142.072v.059h-.357v-.059c.063 0 .1-.022.108-.072.005-.044.01-.125.01-.278v-.264c0-.108-.002-.127-.032-.166-.02-.03-.056-.042-.109-.045v-.058Zm1.29 2.195c0 .308-.21.502-.488.502a.461.461 0 0 1-.48-.478c0-.233.155-.505.502-.505.264 0 .466.194.466.48Zm-1.087.425v.055h-.469v-.055c.1-.009.111-.02.111-.175v-.478c0-.156-.011-.167-.11-.175v-.056h.468v.056c-.1.008-.111.02-.111.175v.477c0 .156.011.167.11.175Zm-.743-1.737c.1-.008.11-.016.11-.175v-.475c0-.158-.01-.166-.11-.175v-.058h.465v.058c-.1.009-.11.017-.11.175v.475c0 .159.01.167.11.175v.059h-.465v-.059Zm.008 1.736v.056h-.505v-.055c.114-.009.125-.02.125-.175v-.634h-.022c-.097 0-.136.017-.161.045a.358.358 0 0 0-.053.139h-.06c.005-.123.013-.22.016-.295h.047c.02.033.036.036.075.036h.574c.039 0 .044-.008.07-.036h.044c.002.061.008.183.016.292h-.064c-.022-.084-.038-.122-.06-.145-.023-.027-.073-.036-.142-.036h-.033v.634c0 .155.01.166.133.175Zm-.957-1.677h-.358v-.059c.07-.005.097-.02.106-.072.008-.044.016-.122.022-.253l.017-.291c.01-.184 0-.2-.114-.209v-.058h.338l.252.572.222-.572h.35v.058c-.108.009-.117.014-.111.167l.014.483c.005.162.008.167.11.175v.059h-.451v-.059c.108-.008.113-.014.11-.175v-.508h-.008l-.28.725h-.078l-.263-.675h-.003l-.01.322a3.18 3.18 0 0 0 0 .24c.005.052.038.066.132.071v.059h.003Zm1.265 3.47h-.452v-.056c.108-.012.11-.017.11-.175l-.005-.511h-.005l-.278.724h-.078l-.266-.672h-.003l-.008.32a2.174 2.174 0 0 0 0 .239c.006.052.036.066.13.075v.055h-.355v-.055c.07-.006.095-.023.106-.075.005-.045.014-.123.022-.253l.017-.292c.008-.183-.003-.197-.117-.208v-.056h.339l.252.573.222-.573h.352v.056c-.11.01-.116.017-.114.166l.017.487c.003.158.005.163.11.175v.055h.004Zm.82 0h-.734v-.056c.11-.009.122-.02.122-.175v-.478c0-.156-.011-.167-.108-.175v-.056h.685c0 .023.008.128.016.24h-.064c-.016-.067-.03-.11-.055-.131-.022-.025-.07-.034-.147-.034h-.022c-.056 0-.058 0-.058.05v.278h.072c.124 0 .127-.008.141-.117h.064v.34h-.064c-.014-.126-.017-.134-.141-.134h-.072v.233c0 .078 0 .111.027.125a.238.238 0 0 0 .1.014c.058 0 .122-.008.155-.044a.402.402 0 0 0 .07-.148l.064.009c-.006.072-.037.22-.05.258Zm1.01 0h-.452v-.056l.044-.006c.053-.008.056-.022.036-.075l-.052-.147h-.236l-.044.139c-.02.06-.02.075.047.083l.044.006v.055h-.338v-.055c.075-.012.097-.017.144-.14l.288-.747.1-.019.097.272c.064.172.125.345.18.492.045.125.073.133.142.142v.055Zm.341-3.47h-.454v-.059l.044-.005c.053-.006.055-.022.036-.072l-.053-.148h-.236l-.044.14c-.017.06-.017.074.05.083h.042v.06h-.339v-.058c.075-.008.097-.014.145-.136l.288-.747.1-.02.097.273.18.489c.047.128.072.133.144.141v.059Zm-.549-.647-.089.274h.186l-.091-.274h-.006Zm-.338 3.469-.089.278h.183l-.089-.278h-.005Zm-.469-1.595c0 .262.097.453.239.453.124 0 .191-.12.191-.38 0-.292-.103-.453-.227-.453-.111 0-.203.128-.203.38Zm.203-.38c-.111 0-.203.128-.203.38 0 .253.097.453.239.453.124 0 .191-.12.191-.38 0-.292-.103-.453-.227-.453Zm.61-1.494h-.006l-.089.274h.186l-.091-.274Zm0 0h-.006l-.089.274h.186l-.091-.274Zm-.61 1.494c-.111 0-.203.128-.203.38 0 .253.097.453.239.453.124 0 .191-.12.191-.38 0-.292-.103-.453-.227-.453Zm0 0c-.111 0-.203.128-.203.38 0 .253.097.453.239.453.124 0 .191-.12.191-.38 0-.292-.103-.453-.227-.453Zm.61-1.494h-.006l-.089.274h.186l-.091-.274Zm0 0h-.006l-.089.274h.186l-.091-.274Zm-.61 1.494c-.111 0-.203.128-.203.38 0 .253.097.453.239.453.124 0 .191-.12.191-.38 0-.292-.103-.453-.227-.453Zm.61-1.494h-.006l-.089.274h.186l-.091-.274Zm0 0h-.006l-.089.274h.186l-.091-.274Z"/><path fill="#fff" d="M62.833 18.964v7.03h-5.108l-.07.173c-.083.205-.233.397-.765.397-.533 0-.683-.192-.763-.397l-.07-.173h-5.094v-7.03h-.555v.18l-.388-.119a.437.437 0 0 0-.41-.3.433.433 0 0 0 0 .867c.1 0 .19-.036.263-.092l.535.164v.536l-.385-.07a.432.432 0 0 0-.824.165.436.436 0 0 0 .413.455.44.44 0 0 0 .325-.125l.471.086v.55l-.405-.017a.434.434 0 0 0-.363-.2.434.434 0 0 0 0 .867c.139 0 .26-.067.341-.17l.427.02v.597l-.416.014a.436.436 0 0 0-.344-.172.433.433 0 1 0 .364.67l.399-.014v.55l-.46.08a.433.433 0 1 0 .083.492l.377-.064v.539l-.513.155a.433.433 0 0 0-.264-.091.434.434 0 0 0 0 .866.434.434 0 0 0 .41-.297l.367-.11v.516l-.571.247a.434.434 0 1 0-.21.803.433.433 0 0 0 .404-.345l.377-.16v.508h5.306c.224.374.604.569 1.175.569.572 0 .952-.195 1.176-.57h5.323v-7.586h-.555l-.003.006ZM53.412 16.683c-1.068 0-1.936.167-1.936.373 0 .205.865.372 1.936.372 1.07 0 1.933-.167 1.933-.372 0-.206-.865-.373-1.933-.373ZM56.074 14.283l-1.117.787-.009.08.266.12c.053.024.053.069.025.094l-.701.592-.067-.006-.496-.733c-.034-.048-.023-.095.038-.106l.333-.055v-.084l-.865-1.225h-.141l-.866 1.225v.084l.333.055c.058.011.072.058.039.106l-.497.733-.066.006-.655-.592c-.027-.025-.025-.067.025-.095l.267-.119-.012-.08-1.162-.787-.094.037.682 2.088c.347-.155 1.143-.266 2.075-.269.932.006 1.728.114 2.074.27l.683-2.09-.095-.036h.003ZM56.88 30.7c-1.067 0-1.935.166-1.935.372s.865.372 1.936.372c1.07 0 1.933-.166 1.933-.372s-.865-.372-1.933-.372ZM59.543 28.3l-1.117.786-.009.08.267.12c.052.025.052.07.025.094l-.702.592-.067-.006-.496-.733c-.033-.047-.022-.094.039-.105l.333-.056v-.083l-.866-1.225h-.141l-.865 1.225v.083l.332.056c.061.01.072.058.04.105l-.497.733-.067.006-.654-.592c-.028-.025-.025-.066.025-.094l.266-.12-.011-.08-1.162-.786-.095.036.683 2.089c.346-.156 1.142-.267 2.074-.27.932.006 1.728.114 2.075.27l.682-2.09-.094-.035h.002ZM60.344 16.683c-1.068 0-1.936.167-1.936.372 0 .206.865.372 1.936.372 1.07 0 1.933-.166 1.933-.372 0-.205-.866-.372-1.933-.372ZM63.006 14.283l-1.118.786-.011.08.266.12c.053.025.053.07.025.095l-.702.591-.066-.005-.497-.733c-.033-.048-.022-.095.04-.106l.332-.056v-.083l-.865-1.225h-.142l-.865 1.225v.083l.333.056c.058.011.072.058.039.105l-.497.734-.066.005-.655-.6c-.028-.025-.028-.066.025-.094l.266-.111-.01-.08-1.163-.787-.094.036.682 2.09c.347-.156 1.143-.267 2.075-.27.931.005 1.727.114 2.074.27l.682-2.09-.094-.036h.006ZM57.261 8.658a.397.397 0 1 1-.793.001.397.397 0 0 1 .793 0ZM66.528 12.361a.397.397 0 0 1-.793-.042.397.397 0 0 1 .793.042ZM55.564 35.903a.397.397 0 1 1-.794 0 .397.397 0 0 1 .794 0ZM59.472 36.544a.397.397 0 1 1-.794.001.397.397 0 0 1 .794 0ZM46.256 28.417c.136 0 .519.039.846.5.133.191.228.416.228.65 0 .389-.189.614-.647.936l-1.209.855-.33-.469 1.354-.956c.124-.088.29-.233.29-.419a.484.484 0 0 0-.105-.317c-.144-.205-.294-.222-.388-.222-.144 0-.28.086-.571.292l-1.173.766-.32-.455 1.246-.817c.33-.233.54-.344.777-.341l.002-.003ZM44.105 27.308l1.655-.65.178.464-2.5.97-.177-.486 1.293-1.65-1.667.583-.178-.489 2.521-.883.167.458-1.295 1.68.003.003ZM42.307 23.98l2.654-.405.086.567-2.654.405-.086-.567ZM44.867 21.811l-2.721.817.025-.578 2.041-.55-1.988-.733.025-.561 2.643 1.047-.023.555-.002.003ZM42.531 18.75l.444-1.567.441.125-.291 1.025.599.173.275-.962.432.123-.274.96.657.19.3-1.056.449.128-.455 1.597-2.582-.736h.005ZM46.63 15.733l-.796-.069c-.377-.036-.413.056-.518.245l-.03.055.942.503-.28.497-2.36-1.294.385-.681c.175-.314.36-.647.832-.647.297 0 .71.25.71.7 0 .08-.019.164-.052.253.105-.153.3-.175.471-.175.097 0 .192.016.272.022l.716.064-.294.527h.002Zm-1.983-.813c-.136.039-.208.144-.31.327l-.089.153.652.353.11-.197c.092-.167.114-.261.081-.375a.418.418 0 0 0-.188-.225.333.333 0 0 0-.256-.034v-.002ZM47.82 10.439l.458-.345 1.617 2.148-.458.344-1.616-2.147ZM50.835 9.105l1.02 1.981-.507.264-1.02-1.98-.655.338-.21-.408 1.813-.936.211.408-.652.336v-.003ZM53.977 9.25l.258 1.042-.532.133-.258-1.042-1.21-1.363.564-.142.801.939.27-1.209.54-.133-.43 1.772-.003.003ZM63.696 10.214l.849.505-.23.39-.85-.506-.587.991-.485-.288 1.372-2.312 1.376.823-.236.394-.893-.53-.319.536.003-.003ZM68.522 18.953l.735-.808-1.065-.253-.175-.561 1.586.413.993-1.163.183.588-.682.748.99.239.172.55-1.473-.395-1.079 1.23-.183-.585-.002-.003ZM71.09 20.87l-.624.05.067.994-.45.03-.066-.986-1.148.078-.04-.539 2.68-.22.108 1.617-.458.031-.069-1.053v-.003Z"/><path fill="#fff" d="M72.976 22.189c.072-8.872-7.089-16.147-15.961-16.22a16.011 16.011 0 0 0-11.122 4.34 15.944 15.944 0 0 0-5.1 11.622 16.073 16.073 0 0 0 6.878 13.32 3.931 3.931 0 0 0 5.347 2.702c.516.164 1.046.303 1.573.414a7.993 7.993 0 0 1-.652 1.32l.386.385a.555.555 0 0 1 .307-.091c.294 0 .577.202.575.566 0 .297-.2.573-.613.573a.743.743 0 0 1-.672-.456s-.105.328-.105.722c0 1.197 1.298 2.514 3.034 3.064 1.748-.547 3.04-1.867 3.04-3.064 0-.394-.105-.722-.105-.722-.159.336-.447.456-.672.456-.413 0-.612-.278-.612-.573 0-.364.28-.566.574-.566.108 0 .216.03.307.091l.355-.353.009-.005.014-.02h.005v-.01c-.175-.42-.3-.8-.39-1.164 2.88-.395 5.313-1.62 7.249-3.659 3.994-3.044 6.307-7.647 6.348-12.675l.003.003ZM51.493 37.717c-1.853 0-3.361-1.517-3.361-3.378 0-.583.147-1.13.407-1.608.172.155.355.32.547.483-.164.347-.258.73-.258 1.139 0 1.011.51 1.847 1.472 2.416.558.331 1.193.628 1.864.887-.219.044-.44.066-.668.066l-.003-.005Zm5.392-4.934c-.63 0-1.248-.058-1.859-.163a3.956 3.956 0 0 0-3.536-2.203c-.383 0-.751.058-1.104.16a10.773 10.773 0 0 1-4.207-8.519c0-5.913 4.8-10.725 10.703-10.725 5.902 0 10.703 4.812 10.703 10.725 0 5.914-4.801 10.725-10.703 10.725h.003Zm2.285.309c-.278.447-.447 1.03-.508 1.62a16.635 16.635 0 0 1-2.651-.954c.108-.227.36-.436.793-.436h.08c.783 0 1.548-.08 2.286-.233v.003Zm-3.422.175a1.153 1.153 0 0 0-.222.26c-.344-.144-1.007-.455-1.224-.585.342.108 1.102.289 1.446.325Zm-4.255-2.309c1.126 0 2.18.578 2.798 1.506a10.688 10.688 0 0 1-1.597-.536l-.017-.006a2.695 2.695 0 0 0-3.337.853c-.204-.114-.41-.233-.612-.358a3.357 3.357 0 0 1 2.762-1.461l.003.002Zm7.538 8.52a1.06 1.06 0 0 0-1.073 1.078c0 .694.485 1.11 1.11 1.11.077 0 .152-.008.227-.024-.186.864-1.207 1.802-2.438 2.222-1.21-.42-2.247-1.356-2.432-2.222.072.016.15.025.227.025.624 0 1.11-.417 1.11-1.111 0-.595-.458-1.078-1.074-1.078.155-.286.333-.639.463-1.009a12.58 12.58 0 0 0 2.108.195c.538 0 1.06-.028 1.57-.078.07.264.236.767.277.9-.022 0-.044-.005-.072-.005l-.003-.003Zm-1.778-1.358c-2.143 0-4.817-.731-6.656-1.817-.549-.325-1.203-.928-1.203-1.956 0-.266.05-.522.14-.758.694.572 1.407 1.105 1.856 1.35a.538.538 0 0 0 .827-.45.529.529 0 0 0-.325-.5c-.385-.17-1.184-.5-2.05-.947a2.115 2.115 0 0 1 2.586-.634l.585.342c1.86 1.139 6.614 4.044 12.375 2.536-2.174 1.903-4.845 2.836-8.129 2.836l-.006-.002Zm9.003-3.673c-2.574.909-4.978.85-7.036.397.066-.88.394-1.858.934-2.005 4.627-1.406 8.002-5.706 8.002-10.78 0-6.212-5.056-11.267-11.271-11.267-6.216 0-11.274 5.055-11.274 11.266 0 3.395 1.553 6.623 4.176 8.753-.615.297-1.14.75-1.525 1.303a7.962 7.962 0 0 1-.53-.397l-.105.105c.113.14.283.317.49.517a3.873 3.873 0 0 0-.557 2.003c0 .05.006.1.009.15a15.54 15.54 0 0 1-6.205-12.556 15.433 15.433 0 0 1 4.929-11.239 15.449 15.449 0 0 1 10.72-4.183c8.558.07 15.464 7.1 15.395 15.675-.04 4.87-2.28 9.325-6.152 12.264v-.006Z"/><path fill="#fff" d="M48.309 13.325c0 .23-.1.472-.303.694-.385.422-.796.461-.84.461l-.117-.444c.064-.017.367-.08.583-.314a.492.492 0 0 0 .147-.32c0-.105-.07-.291-.289-.291-.233 0-.624.339-1.023.339a.678.678 0 0 1-.502-.186.753.753 0 0 1-.252-.561c0-.223.102-.459.29-.664.359-.392.755-.425.788-.425l.098.439c-.045.008-.339.072-.522.272a.482.482 0 0 0-.144.311c0 .106.066.236.241.239.192 0 .674-.35 1.068-.35.183 0 .313.033.5.2.185.17.277.38.277.605v-.005ZM60.678 10.622c-.685 0-1.306-.522-1.306-1.308 0-.703.468-1.517 1.323-1.517.693 0 1.337.492 1.337 1.28 0 .595-.4 1.542-1.354 1.542v.003Zm.78-1.55a.876.876 0 0 0-.156-.53.666.666 0 0 0-.535-.267c-.483 0-.835.597-.835 1.092 0 .458.308.769.724.769.544 0 .799-.708.799-1.064h.003ZM68.125 16.367c-.818 0-1.268-.79-1.268-1.317 0-.803.863-1.414 1.537-1.414.735 0 1.273.7 1.273 1.334 0 .719-.752 1.4-1.542 1.4v-.003Zm-.094-.545c.471 0 1.126-.408 1.126-.958a.666.666 0 0 0-.672-.675c-.44 0-1.114.392-1.114.947 0 .295.224.686.657.686h.003ZM68.654 24.289c0-.664.45-1.317 1.343-1.317.751 0 1.475.464 1.475 1.295 0 .683-.438 1.341-1.323 1.341-.757 0-1.495-.48-1.495-1.32Zm1.523.744c.477 0 .824-.291.824-.72 0-.51-.591-.771-1.049-.771-.585 0-.82.38-.82.738 0 .562.684.753 1.042.753h.003ZM67.634 27.461h.798c.38.006.408-.086.497-.283l.028-.059-.96-.447.23-.51 2.43 1.124-.311.7c-.214.472-.394.709-.84.709-.286 0-.708-.24-.702-.678a.9.9 0 0 1 .03-.217c-.144.25-.502.214-.729.214h-.718l.25-.553h-.003Zm1.555.3c0 .206.172.37.364.37.172 0 .28-.095.38-.317l.083-.2-.663-.311-.11.247a.533.533 0 0 0-.053.214v-.003ZM66 30.433c0-.55.255-.85.577-1.247l.35-.428 2.082 1.698-.468.575c-.264.325-.575.725-1.174.725-.34 0-.638-.159-.851-.331-.264-.217-.519-.58-.519-.992H66Zm1.431.79c.283 0 .447-.087.774-.487l.103-.125-1.384-1.128-.17.209c-.166.205-.252.408-.252.602 0 .259.128.486.391.7.189.153.36.228.541.228h-.003Z"/></g><defs><clipPath id="a"><path fill="#fff" d="M.5 0h80v80H.5z"/></clipPath></defs></svg>
