<svg viewBox="0 0 792 323" fill="none" xmlns="http://www.w3.org/2000/svg"><path fill-rule="evenodd" clip-rule="evenodd" d="M170.925 35.272c7.756 0 14.044-6.288 14.044-14.045 0-7.756-6.288-14.044-14.044-14.044-7.757 0-14.045 6.288-14.045 14.044 0 7.757 6.288 14.045 14.045 14.045Zm91.586 49.684c7.757 0 14.044-6.288 14.044-14.044 0-7.757-6.287-14.045-14.044-14.045-7.756 0-14.044 6.288-14.044 14.045 0 7.756 6.288 14.044 14.044 14.044ZM110.834 58.479c0 7.757-6.288 14.044-14.044 14.044-7.757 0-14.044-6.287-14.044-14.044 0-7.756 6.287-14.044 14.044-14.044 7.756 0 14.044 6.288 14.044 14.044ZM65.662 186.12c7.757 0 14.044-6.288 14.044-14.044 0-7.757-6.287-14.044-14.044-14.044-7.756 0-14.044 6.287-14.044 14.044 0 7.756 6.288 14.044 14.044 14.044Zm28.641 40.383c0 7.756-6.287 14.044-14.044 14.044-7.756 0-14.044-6.288-14.044-14.044 0-7.757 6.288-14.044 14.044-14.044 7.757 0 14.044 6.287 14.044 14.044Zm93.521 90.573c7.756 0 14.044-6.288 14.044-14.044s-6.288-14.044-14.044-14.044c-7.757 0-14.044 6.288-14.044 14.044s6.287 14.044 14.044 14.044Zm89.56-62.024a8.196 8.196 0 0 1-16.392 0 8.196 8.196 0 1 1 16.392 0Zm-42.501 60.643a8.197 8.197 0 1 0 0-16.394 8.197 8.197 0 0 0 0 16.394Zm-70.589-51.158a8.197 8.197 0 1 1-16.394 0 8.197 8.197 0 0 1 16.394 0ZM85.002 292.81A8.197 8.197 0 1 0 85 276.417a8.197 8.197 0 0 0 0 16.393ZM57.834 143.435a8.196 8.196 0 0 1-8.196 8.196 8.196 8.196 0 1 1 0-16.392 8.196 8.196 0 0 1 8.196 8.196Zm44.804-32.371a8.196 8.196 0 0 0 0-16.392 8.196 8.196 0 1 0 0 16.392Zm-82.424-1.842a8.197 8.197 0 1 1-16.393 0 8.197 8.197 0 0 1 16.393 0Z" fill="#00D8F0"/><path fill-rule="evenodd" clip-rule="evenodd" d="M207.301 31.496c7.757 0 14.045-6.288 14.045-14.044 0-7.757-6.288-14.045-14.045-14.045-7.756 0-14.044 6.288-14.044 14.045 0 7.756 6.288 14.044 14.044 14.044Zm60.091.552c0 10.808-8.762 19.57-19.57 19.57s-19.569-8.762-19.569-19.57 8.761-19.57 19.569-19.57 19.57 8.762 19.57 19.57Zm16.254 28.273c7.757 0 14.045-6.288 14.045-14.044 0-7.757-6.288-14.044-14.045-14.044-7.756 0-14.044 6.287-14.044 14.044 0 7.756 6.288 14.044 14.044 14.044Zm3.684 46.783c0 7.757-6.288 14.044-14.044 14.044s-14.044-6.287-14.044-14.044c0-7.756 6.288-14.044 14.044-14.044s14.044 6.288 14.044 14.044Zm-14.504 187.087c0 7.757-6.288 14.044-14.045 14.044-7.756 0-14.044-6.287-14.044-14.044 0-7.756 6.288-14.044 14.044-14.044 7.757 0 14.045 6.288 14.045 14.044ZM133.028 55.578c11.012 0 19.939-8.927 19.939-19.938 0-11.012-8.927-19.938-19.939-19.938-11.011 0-19.938 8.926-19.938 19.938 0 11.011 8.927 19.938 19.938 19.938Zm-25.74 77.819c0 10.808-8.761 19.57-19.57 19.57-10.808 0-19.57-8.762-19.57-19.57s8.763-19.57 19.57-19.57c10.809 0 19.57 8.762 19.57 19.57Zm15.564 154.762c10.808 0 19.57-8.762 19.57-19.57s-8.762-19.569-19.57-19.569-19.57 8.761-19.57 19.569 8.762 19.57 19.57 19.57Zm88.455-28.134c0 10.808-8.761 19.569-19.569 19.569s-19.57-8.761-19.57-19.569 8.762-19.57 19.57-19.57 19.569 8.762 19.569 19.57Zm-97.204-36.607c11.622 0 21.044-9.422 21.044-21.044 0-11.621-9.422-21.043-21.044-21.043s-21.043 9.422-21.043 21.043c0 11.622 9.421 21.044 21.043 21.044ZM321.727 68.609c0 7.757-6.288 14.044-14.044 14.044-7.757 0-14.044-6.287-14.044-14.044 0-7.756 6.287-14.044 14.044-14.044 7.756 0 14.044 6.288 14.044 14.044Zm-90.85 22.471c7.757 0 14.044-6.288 14.044-14.044 0-7.757-6.287-14.044-14.044-14.044-7.756 0-14.044 6.287-14.044 14.044 0 7.756 6.288 14.044 14.044 14.044Zm-5.203-41.35c0 7.757-6.288 14.044-14.044 14.044-7.757 0-14.044-6.287-14.044-14.044 0-7.756 6.287-14.044 14.044-14.044 7.756 0 14.044 6.288 14.044 14.044Zm-33.752 25.878c0 7.757-6.288 14.045-14.044 14.045-7.757 0-14.045-6.288-14.045-14.045 0-7.756 6.288-14.044 14.045-14.044 7.756 0 14.044 6.288 14.044 14.044ZM136.436 89.1c7.756 0 14.044-6.288 14.044-14.044 0-7.757-6.288-14.044-14.044-14.044-7.757 0-14.044 6.287-14.044 14.044 0 7.756 6.287 14.044 14.044 14.044Zm7.505 20.122c0 7.757-6.287 14.045-14.044 14.045-7.756 0-14.044-6.288-14.044-14.045 0-7.756 6.288-14.044 14.044-14.044 7.757 0 14.044 6.288 14.044 14.044Zm-66.583-4.282c7.757 0 14.044-6.288 14.044-14.044 0-7.757-6.287-14.044-14.044-14.044-7.756 0-14.044 6.287-14.044 14.044 0 7.756 6.288 14.044 14.044 14.044Zm52.815 56.821c0 7.757-6.287 14.045-14.044 14.045-7.756 0-14.044-6.288-14.044-14.045 0-7.756 6.288-14.044 14.044-14.044 7.757 0 14.044 6.288 14.044 14.044Zm12.986 82.147c7.756 0 14.044-6.287 14.044-14.044 0-7.756-6.288-14.044-14.044-14.044-7.757 0-14.045 6.288-14.045 14.044 0 7.757 6.288 14.044 14.045 14.044Zm25.97 49.224c0 7.757-6.288 14.044-14.044 14.044-7.757 0-14.045-6.287-14.045-14.044 0-7.756 6.288-14.044 14.045-14.044 7.756 0 14.044 6.288 14.044 14.044Zm55.532 2.763c7.756 0 14.044-6.288 14.044-14.044 0-7.757-6.288-14.044-14.044-14.044s-14.044 6.287-14.044 14.044c0 7.756 6.288 14.044 14.044 14.044Zm35.916-55.624c0 7.756-6.288 14.044-14.044 14.044s-14.044-6.288-14.044-14.044c0-7.757 6.288-14.044 14.044-14.044s14.044 6.287 14.044 14.044Zm11.512-6.861c7.756 0 14.044-6.288 14.044-14.044 0-7.757-6.288-14.045-14.044-14.045-7.757 0-14.044 6.288-14.044 14.045 0 7.756 6.287 14.044 14.044 14.044Zm36.883 9.439c0 7.757-6.288 14.044-14.044 14.044s-14.044-6.287-14.044-14.044c0-7.756 6.288-14.044 14.044-14.044s14.044 6.288 14.044 14.044Zm3.914 27.766a8.195 8.195 0 0 0 8.196-8.196 8.195 8.195 0 0 0-8.196-8.196 8.195 8.195 0 0 0-8.196 8.196 8.195 8.195 0 0 0 8.196 8.196Zm-55.993-2.348a8.196 8.196 0 1 1-16.392 0 8.196 8.196 0 0 1 16.392 0Zm-35.087-9.347a8.196 8.196 0 0 0 8.196-8.197 8.196 8.196 0 0 0-16.392 0 8.196 8.196 0 0 0 8.196 8.197Zm.138 51.94a8.195 8.195 0 0 1-8.196 8.196 8.195 8.195 0 0 1-8.196-8.196 8.195 8.195 0 0 1 8.196-8.196 8.195 8.195 0 0 1 8.196 8.196Zm-56.821-59.078a8.196 8.196 0 1 0 0-16.392 8.196 8.196 0 0 0 0 16.392Zm-50.237-13.537a8.197 8.197 0 1 1-16.393-.001 8.197 8.197 0 0 1 16.393.001Zm-25.325 25.003a8.196 8.196 0 1 0 0-16.393 8.196 8.196 0 0 0 0 16.393Zm-23.53-14.689a8.196 8.196 0 0 1-8.197 8.196 8.196 8.196 0 0 1-8.196-8.196 8.196 8.196 0 0 1 8.196-8.196 8.196 8.196 0 0 1 8.197 8.196Zm-8.289-37.988a8.197 8.197 0 1 0 0-16.393 8.197 8.197 0 0 0 0 16.393ZM89.7 194.362a8.197 8.197 0 1 1-16.394 0 8.197 8.197 0 0 1 16.394 0Zm1.75-15.287a8.196 8.196 0 1 0-.001-16.393 8.196 8.196 0 0 0 0 16.393ZM129.16 135.1a8.196 8.196 0 1 1-8.196-8.196 8.196 8.196 0 0 1 8.196 8.196Zm-71.418-10.452a8.196 8.196 0 1 0 0-16.393 8.196 8.196 0 0 0 0 16.393Zm61.012-43.422a8.196 8.196 0 1 1-16.393 0 8.196 8.196 0 0 1 16.393 0Zm35.962 20.859a8.197 8.197 0 1 0 0-16.393 8.197 8.197 0 0 0 0 16.393Zm12.249-46.092a8.197 8.197 0 1 1-16.393-.001 8.197 8.197 0 0 1 16.393 0Zm15.84-.691a8.196 8.196 0 1 0-.001-16.393 8.196 8.196 0 0 0 .001 16.393Zm29.838 20.997a8.196 8.196 0 1 1-16.393 0 8.196 8.196 0 0 1 16.393 0Zm38.126 26.247a8.197 8.197 0 1 0 0-16.394 8.197 8.197 0 0 0 0 16.394Zm43.652-19.018a8.196 8.196 0 1 1-16.392 0 8.196 8.196 0 1 1 16.392 0ZM52.447 76.806a8.196 8.196 0 1 0 0-16.393 8.196 8.196 0 0 0 0 16.393Zm-16.208 99.322a8.196 8.196 0 0 1-8.197 8.196 8.196 8.196 0 1 1 0-16.392 8.196 8.196 0 0 1 8.197 8.196Zm250.308 114.241c7.757 0 14.045-6.287 14.045-14.044 0-7.756-6.288-14.044-14.045-14.044-7.756 0-14.044 6.288-14.044 14.044 0 7.757 6.288 14.044 14.044 14.044Zm-258.55-66.491a8.196 8.196 0 0 1-8.197 8.196 8.196 8.196 0 1 1 0-16.392 8.196 8.196 0 0 1 8.196 8.196ZM396.875 103.927c5.756 0 11.512-2.763 15.057-7.275l.046-.093 7.045 7.046c-5.295 6.17-13.399 9.715-22.24 9.715-8.381 0-16.024-3.085-21.596-8.656-5.572-5.572-8.611-13.308-8.611-21.688 0-8.38 3.085-16.117 8.611-21.688 5.526-5.572 13.169-8.657 21.504-8.657 8.795 0 16.899 3.546 22.286 9.716l-7.045 7.045c-3.638-4.466-9.624-7.275-15.057-7.275-5.434 0-10.407 2.072-14.044 5.848-3.638 3.822-5.664 9.163-5.664 15.057s2.026 11.235 5.664 15.057c3.591 3.776 8.288 5.848 14.044 5.848Zm134.456 8.473h-10.867l-24.865-42.271V112.4h-9.578V53.69h11.466l24.22 41.028V53.69h9.624v58.71ZM587.6 96.652c-3.546 4.512-9.302 7.275-15.058 7.275s-10.452-2.072-14.044-5.848c-3.638-3.822-5.664-9.163-5.664-15.057s2.026-11.236 5.664-15.057c3.638-3.776 8.611-5.848 14.044-5.848 5.434 0 11.42 2.809 15.058 7.275l7.045-7.045c-5.388-6.17-13.492-9.716-22.287-9.716-8.334 0-15.978 3.085-21.504 8.657-5.525 5.572-8.61 13.307-8.61 21.688 0 8.38 3.039 16.116 8.61 21.688 5.572 5.571 13.216 8.656 21.596 8.656 8.841 0 16.945-3.545 22.241-9.715l-7.045-7.046-.046.093Zm53.69-34.167h-26.569v15.656h22.378v8.795h-22.378v16.669h26.569v8.795h-36.607V53.69h36.607v8.795ZM388.218 170.326l13.676 21.274h11.696l-14.919-22.333h.138c7.736-2.533 12.755-9.44 12.755-17.636 0-10.867-8.611-18.741-20.445-18.741h-21.412v58.71h10.039v-21.274h8.472Zm-8.38-28.871h9.439c7.46 0 11.696 3.73 11.696 10.222 0 6.493-4.328 10.13-11.65 10.13h-9.531v-20.352h.046Zm306.117-29.194-13.676-21.273h-8.472v21.273h-10.039V53.552h21.412c11.834 0 20.445 7.874 20.445 18.741 0 8.196-5.019 15.103-12.755 17.636h-.138l14.919 22.332h-11.696Zm-12.617-50.144h-9.485v20.352h9.531c7.322 0 11.65-3.637 11.65-10.13 0-6.492-4.236-10.222-11.696-10.222Zm-26.016 108.209 13.676 21.274h11.695l-14.919-22.333h.139c7.735-2.533 12.754-9.44 12.754-17.636 0-10.867-8.61-18.741-20.444-18.741h-21.412v58.71h10.038v-21.274H647.322Zm-8.427-28.871h9.44c7.459 0 11.696 3.73 11.696 10.222 0 6.493-4.329 10.13-11.65 10.13h-9.532v-20.352h.046Zm-177.141.23h-26.568v15.656h22.424v8.795h-22.424v16.669h26.568v8.795h-36.607v-58.71h36.607v8.795Zm30.253 50.928c12.156 0 20.03-6.861 20.03-17.406 0-8.012-4.789-13.814-13.537-16.439l-6.861-2.072c-5.94-1.749-8.519-4.282-8.519-8.518 0-4.559 3.73-7.69 9.117-7.69 4.467 0 8.058 1.704 11.696 5.479l6.539-6.538c-4.421-4.881-10.637-7.506-18.051-7.506-11.787 0-19.661 7.091-19.661 17.59 0 3.776 1.197 7.091 3.499 9.854 2.348 2.763 5.756 4.835 10.13 6.17l8.197 2.441c4.696 1.381 7.275 4.328 7.275 8.196 0 4.927-3.73 7.966-9.808 7.966-5.295 0-9.9-2.44-14.182-7.46l-6.631 6.631c5.019 5.986 12.617 9.394 20.813 9.394l-.046-.092Zm67.734-50.928h-26.568v15.656h22.378v8.795h-22.378v16.669h26.568v8.795h-36.653v-58.71h36.653v8.795Zm22.655 36.653h22.01l4.421 13.262h11.051l-20.122-58.71h-12.018l-20.215 58.71h10.361l4.512-13.262Zm11.097-33.061 8.243 24.727h-16.577l8.334-24.727ZM461.202 99.138h-22.01l-4.513 13.262h-10.36l20.214-58.71h12.018l20.122 58.71h-11.051l-4.42-13.262Zm-2.671-8.288-8.242-24.727-8.335 24.727h16.577Zm266.241 57.742 6.999-6.999c-5.387-6.17-13.491-9.716-22.286-9.716-8.335 0-15.978 3.085-21.504 8.657-5.526 5.572-8.611 13.307-8.611 21.688 0 8.38 3.039 16.116 8.611 21.688 5.572 5.571 13.215 8.656 21.596 8.656 8.841 0 16.945-3.545 22.24-9.715l-7.045-6.999c-3.546 4.512-9.301 7.275-15.057 7.275s-10.453-2.072-14.044-5.848c-3.638-3.822-5.664-9.163-5.664-15.057s2.026-11.236 5.664-15.057c3.637-3.776 8.61-5.848 14.044-5.848 5.433 0 11.419 2.809 15.057 7.275Zm63.821 43.008h-10.131V166.136H752.86V191.6h-10.038v-58.71h10.038v24.451H778.462V132.89h10.131v58.71ZM369.8 213.287h9.992v23.807h24.819v-23.807h9.992v57.42h-9.992v-24.819h-24.819v24.819H369.8v-57.42Zm82.837-1.013c-16.899 0-29.423 12.709-29.423 29.7 0 17.084 12.432 29.7 29.423 29.7s29.516-12.662 29.516-29.7c0-17.037-12.617-29.7-29.516-29.7Zm.046 9.44c10.729 0 18.925 8.38 18.925 20.26s-8.242 20.261-18.925 20.261-18.879-8.381-18.879-20.261c0-11.88 8.15-20.26 18.879-20.26Zm38.127-8.427h19.293c11.972 0 19.984 8.059 19.984 18.373 0 8.15-4.973 14.781-12.939 17.221l14.643 21.78h-11.235l-13.4-20.721h-6.354v20.721h-9.992v-57.374Zm28.687 18.373c0-6.493-4.467-9.854-11.236-9.854h-7.459v19.616h7.459c6.815 0 11.236-3.408 11.236-9.762Zm32.831 30.253H540.31v8.794h33.89v-8.794h-11.88v-39.831h11.88v-8.795h-33.89v8.795h12.018v39.831Zm32.279.138 29.515-40.153h-29.515v-8.611h41.165v8.611l-29.516 40.153h29.516v8.61h-41.165v-8.61Zm74.457-49.777c-16.899 0-29.424 12.709-29.424 29.7 0 17.084 12.433 29.7 29.424 29.7s29.515-12.662 29.515-29.7c0-17.037-12.616-29.7-29.515-29.7Zm.046 9.44c10.729 0 18.925 8.38 18.925 20.26s-8.242 20.261-18.925 20.261-18.879-8.381-18.879-20.261c0-11.88 8.15-20.26 18.879-20.26Zm36.653-8.427h11.373l23.438 39.693v-39.693h9.532v57.42h-10.729l-24.083-40.889v40.889h-9.531v-57.42Zm59.4 42.501-6.585 6.585v.046c4.927 5.94 12.433 9.255 20.399 9.255 12.064 0 19.616-6.814 19.616-17.083 0-7.413-4.237-13.445-13.262-16.116l-6.677-2.026c-5.847-1.704-8.196-4.19-8.196-8.196 0-4.237 3.5-7.414 8.795-7.414 4.605 0 8.104 1.98 11.374 5.388l6.492-6.493c-4.697-5.295-11.051-7.414-17.728-7.414-11.558 0-19.293 6.954-19.293 17.222 0 7.413 4.743 13.077 13.353 15.702l7.966 2.348c4.881 1.428 6.999 4.467 6.999 7.874 0 4.651-3.591 7.644-9.439 7.644-4.789 0-9.348-2.026-13.814-7.322Z" fill="#fff"/></svg>
